<?xml version="1.0" encoding="UTF-8"?>
<svg enable-background="new 0 0 73 56.5" version="1.1" viewBox="0 0 73 56.5" xml:space="preserve" xmlns="http://www.w3.org/2000/svg">
<style type="text/css">
	.st0{fill:#5865F2;}
</style>
	<path class="st0" d="m61.8 4.7c-4.7-2.2-9.8-3.8-15.1-4.7-0.6 1.2-1.4 2.7-1.9 4-5.6-0.8-11.2-0.8-16.7 0-0.5-1.3-1.3-2.8-2-4-5.3 0.9-10.3 2.5-15.1 4.7-9.4 14.4-12 28.5-10.7 42.3 6.3 4.7 12.4 7.6 18.5 9.5 1.5-2 2.8-4.2 4-6.5-2.2-0.8-4.3-1.8-6.2-3l1.5-1.2c12 5.6 25 5.6 36.9 0l1.5 1.2c-2 1.2-4.1 2.2-6.2 3 1.1 2.3 2.5 4.5 4 6.5 6-1.9 12.2-4.7 18.5-9.5 1.4-16-2.7-29.9-11-42.3zm-37.4 33.8c-3.6 0-6.6-3.4-6.6-7.5s2.9-7.5 6.6-7.5 6.6 3.4 6.6 7.5c-0.1 4.1-3 7.5-6.6 7.5zm24.2 0c-3.6 0-6.6-3.4-6.6-7.5s2.9-7.5 6.6-7.5 6.6 3.4 6.6 7.5-2.9 7.5-6.6 7.5z"/>
</svg>
