<?xml version="1.0" encoding="UTF-8"?>
<svg id="Layer_1" data-name="Layer 1" xmlns="http://www.w3.org/2000/svg" xmlns:xlink="http://www.w3.org/1999/xlink" viewBox="0 0 256 256">
  <defs>
    <style>
      .cls-1 {
        fill: url(#radial-gradient);
      }

      .cls-1, .cls-2, .cls-3, .cls-4, .cls-5, .cls-6, .cls-7, .cls-8, .cls-9, .cls-10, .cls-11, .cls-12, .cls-13, .cls-14 {
        stroke-width: 0px;
      }

      .cls-2 {
        fill: url(#radial-gradient-2);
      }

      .cls-3 {
        fill: url(#radial-gradient-3);
      }

      .cls-4 {
        fill: url(#radial-gradient-4);
      }

      .cls-5 {
        fill: url(#radial-gradient-6);
      }

      .cls-6 {
        fill: url(#radial-gradient-8);
      }

      .cls-7 {
        fill: url(#radial-gradient-5);
      }

      .cls-8 {
        fill: url(#radial-gradient-7);
      }

      .cls-9 {
        fill: #842123;
      }

      .cls-10 {
        fill: #bbcfda;
      }

      .cls-11 {
        fill: #ff6101;
      }

      .cls-12 {
        fill: #fff;
      }

      .cls-13 {
        fill: #ff4500;
      }

      .cls-14 {
        fill: #ffc49c;
      }
    </style>
    <radialGradient id="radial-gradient" cx="43.94" cy="-335.25" fx="43.94" fy="-344.38" r="127.45" gradientTransform="translate(180.36 245.01) scale(.47 .41)" gradientUnits="userSpaceOnUse">
      <stop offset="0" stop-color="#feffff"/>
      <stop offset=".4" stop-color="#feffff"/>
      <stop offset=".51" stop-color="#f9fcfc"/>
      <stop offset=".62" stop-color="#edf3f5"/>
      <stop offset=".7" stop-color="#dee9ec"/>
      <stop offset=".72" stop-color="#d8e4e8"/>
      <stop offset=".76" stop-color="#ccd8df"/>
      <stop offset=".8" stop-color="#c8d5dd"/>
      <stop offset=".83" stop-color="#ccd6de"/>
      <stop offset=".85" stop-color="#d8dbe2"/>
      <stop offset=".88" stop-color="#ede3e9"/>
      <stop offset=".9" stop-color="#ffebef"/>
    </radialGradient>
    <radialGradient id="radial-gradient-2" cx="-262.17" fx="-262.17" xlink:href="#radial-gradient"/>
    <radialGradient id="radial-gradient-3" cx="-106.41" cy="-351.77" fx="-106.41" fy="-351.77" r="384.44" gradientTransform="translate(180.36 215.26) scale(.47 .33)" xlink:href="#radial-gradient"/>
    <radialGradient id="radial-gradient-4" cx="-358.17" cy="1091.23" fx="-358.17" fy="1091.23" r="32.12" gradientTransform="translate(-3.06 903.92) rotate(-180) scale(.47 .69)" gradientUnits="userSpaceOnUse">
      <stop offset="0" stop-color="#f60"/>
      <stop offset=".5" stop-color="#ff4500"/>
      <stop offset=".7" stop-color="#fc4301"/>
      <stop offset=".82" stop-color="#f43f07"/>
      <stop offset=".92" stop-color="#e53812"/>
      <stop offset="1" stop-color="#d4301f"/>
    </radialGradient>
    <radialGradient id="radial-gradient-5" cx="-191.85" cy="1091.23" fx="-191.85" fy="1091.23" r="32.12" gradientTransform="translate(180.36 903.92) scale(.47 -.69)" xlink:href="#radial-gradient-4"/>
    <radialGradient id="radial-gradient-6" cx="-110.62" cy="-148.33" fx="-110.62" fy="-148.33" r="113.26" gradientTransform="translate(180.36 240.89) scale(.47 .31)" gradientUnits="userSpaceOnUse">
      <stop offset="0" stop-color="#172e35"/>
      <stop offset=".29" stop-color="#0e1c21"/>
      <stop offset=".73" stop-color="#030708"/>
      <stop offset="1" stop-color="#000"/>
    </radialGradient>
    <radialGradient id="radial-gradient-7" cx="-10.74" cy="-483.37" fx="-10.74" fy="-483.37" r="99.42" gradientTransform="translate(180.36 261.29) scale(.47)" xlink:href="#radial-gradient"/>
    <radialGradient id="radial-gradient-8" cx="-52.17" cy="-383.03" fx="-52.17" fy="-383.03" r="81.49" gradientTransform="translate(180.36 265.07) scale(.47)" gradientUnits="userSpaceOnUse">
      <stop offset=".48" stop-color="#7a9299"/>
      <stop offset=".67" stop-color="#172e35"/>
      <stop offset=".75" stop-color="#000"/>
      <stop offset=".82" stop-color="#172e35"/>
    </radialGradient>
  </defs>
  <path class="cls-13" d="m128,0h0C57.31,0,0,57.31,0,128h0c0,35.35,14.33,67.35,37.49,90.51l-24.38,24.38c-4.84,4.84-1.41,13.11,5.43,13.11h109.46s0,0,0,0c70.69,0,128-57.31,128-128h0C256,57.31,198.69,0,128,0Z"/>
  <g>
    <circle class="cls-1" cx="200.56" cy="123.65" r="29.89"/>
    <circle class="cls-2" cx="55.44" cy="123.65" r="29.89"/>
    <ellipse class="cls-3" cx="128.07" cy="149.33" rx="85.33" ry="64"/>
    <path class="cls-9" d="m102.84,143.11c-.5,10.84-7.7,14.78-16.07,14.78s-14.77-5.55-14.27-16.39c.5-10.84,7.7-18.02,16.07-18.02s14.77,8.79,14.27,19.63Z"/>
    <path class="cls-9" d="m183.64,141.49c.5,10.84-5.89,16.39-14.27,16.39s-15.58-3.93-16.07-14.78c-.5-10.84,5.89-19.63,14.27-19.63s15.58,7.17,16.07,18.02Z"/>
    <path class="cls-4" d="m153.3,144.05c.47,10.15,7.2,13.83,15.04,13.83s13.82-5.51,13.35-15.66c-.47-10.15-7.2-16.79-15.04-16.79s-13.82,8.47-13.35,18.62Z"/>
    <path class="cls-7" d="m102.85,144.05c-.47,10.15-7.2,13.83-15.04,13.83s-13.82-5.51-13.35-15.66c.47-10.15,7.2-16.79,15.04-16.79s13.82,8.47,13.35,18.62Z"/>
    <path class="cls-10" d="m128.07,165.12c-10.58,0-20.72.51-30.1,1.44-1.6.16-2.62,1.79-2,3.25,5.25,12.31,17.64,20.96,32.1,20.96s26.84-8.65,32.1-20.96c.62-1.46-.39-3.09-2-3.25-9.38-.93-19.52-1.44-30.1-1.44Z"/>
    <path class="cls-12" d="m128.07,167.47c-10.55,0-20.66.52-30.01,1.47-1.6.16-2.61,1.82-1.99,3.3,5.24,12.51,17.59,21.29,31.99,21.29s26.76-8.79,32-21.29c.62-1.48-.39-3.14-1.99-3.3-9.35-.95-19.46-1.47-30.01-1.47Z"/>
    <path class="cls-5" d="m128.07,166.25c-10.38,0-20.33.51-29.54,1.44-1.57.16-2.57,1.79-1.96,3.25,5.15,12.31,17.31,20.96,31.5,20.96s26.34-8.65,31.5-20.96c.61-1.46-.39-3.09-1.96-3.25-9.2-.93-19.15-1.44-29.54-1.44Z"/>
    <circle class="cls-8" cx="174.81" cy="55.45" r="21.18"/>
    <path class="cls-6" d="m127.77,88.03c-2.54,0-4.59-1.06-4.59-2.7,0-18.98,15.44-34.41,34.41-34.41,2.54,0,4.59,2.06,4.59,4.59s-2.06,4.59-4.59,4.59c-13.91,0-25.23,11.32-25.23,25.23,0,1.64-2.06,2.7-4.59,2.7Z"/>
    <path class="cls-11" d="m97.27,149.07c0,3.93-4.18,5.69-9.33,5.69s-9.33-1.76-9.33-5.69,4.18-7.11,9.33-7.11,9.33,3.18,9.33,7.11Z"/>
    <path class="cls-11" d="m177.54,149.07c0,3.93-4.18,5.69-9.33,5.69s-9.33-1.76-9.33-5.69,4.18-7.11,9.33-7.11,9.33,3.18,9.33,7.11Z"/>
    <ellipse class="cls-14" cx="94.38" cy="134.79" rx="3.32" ry="3.62"/>
    <ellipse class="cls-14" cx="173.29" cy="134.79" rx="3.32" ry="3.62"/>
  </g>
</svg>