<?xml version="1.0" encoding="UTF-8"?>
<svg enable-background="new 0 0 163.3 114.3" version="1.1" viewBox="0 0 163.3 114.3" xml:space="preserve" xmlns="http://www.w3.org/2000/svg">
<style type="text/css">
	.st0{fill:#FF0000;}
	.st1{fill:#FFFFFF;}
</style>
<g transform="matrix(5.715 0 0 5.715 409.29 277.79)">
	
		<path class="st0" d="m-43.6-45.5c-0.3-1.2-1.3-2.2-2.5-2.5-2.2-0.6-11.2-0.6-11.2-0.6s-8.9 0-11.2 0.6c-1.2 0.3-2.2 1.3-2.5 2.5-0.6 2.2-0.6 6.9-0.6 6.9s0 4.6 0.6 6.9c0.3 1.2 1.3 2.2 2.5 2.5 2.2 0.6 11.2 0.6 11.2 0.6s8.9 0 11.2-0.6c1.2-0.3 2.2-1.3 2.5-2.5 0.6-2.3 0.6-6.9 0.6-6.9s0-4.7-0.6-6.9z"/>
		<path class="st1" d="m-60.2-34.3 7.4-4.3-7.4-4.3v8.6z"/>
	
</g>
</svg>
